# xmcd
#
# Track frame offsets:
#	150
#	25114
#	41110
#	54536
#	72300
#	89342
#	108508
#	125257
#	141541
#	156786
#	167762
#	185874
#	200442
#	212622
#	229350
#	242660
#	257358
#	271504
#	289143
#	306030
#
# Disc length: 4361 seconds
#
# Revision: 2
# Processed by: cddbd v1.5.2PL0 Copyright (c) Steve Scherf et al.
# Submitted via: audiograbber 1.83.01
#
DISCID=25110714
DTITLE=Various Artist - New Canadian Country Artists
DYEAR=2001
DGENRE=Country
TTITLE0=Jim Doherty - You Know That I Do
TTITLE1=Tracey Ennis - My Love Goes That Far
TTITLE2=C.C. Harvey - Money Flies Out - Love Strikes Out
TTITLE3=John Alcorn and Melanie Doane - Change Your Mind
TTITLE4=Kelly James - Try Again Tomorrow
TTITLE5=Marilyn Fay Parney - Unbridled Heart
TTITLE6=Christina Doyle - He Drives Me Crazy
TTITLE7=Kat Wahamaa - Oh, Oh, Oh
TTITLE8=Brad Fersovitch - Shiny Things
TTITLE9=L.B. Brent - Life Can't Get Better Than This
TTITLE10=Donnie James - Mexico
TTITLE11=Vic Allard - Just Outside Your Door
TTITLE12=KerryLee - Built to Break
TTITLE13=Craig Richards - On My Knee
TTITLE14=Maple Creek - One Kiss, One Heartache
TTITLE15=Shawn Brush - I Never Knew
TTITLE16=Jim Bennett - My Little Girl
TTITLE17=Elmer Riehl - With Love Dad
TTITLE18=Don LeBlanc - You'll Drive Your Friends Away
TTITLE19=LiANA - Time
EXTD=
EXTT0=
EXTT1=
EXTT2=
EXTT3=
EXTT4=
EXTT5=
EXTT6=
EXTT7=
EXTT8=
EXTT9=
EXTT10=
EXTT11=
EXTT12=
EXTT13=
EXTT14=
EXTT15=
EXTT16=
EXTT17=
EXTT18=
EXTT19=
PLAYORDER=
